<svg id="bucket" xmlns="http://www.w3.org/2000/svg" width="28" height="28" viewBox="0 0 28 28">
  <rect id="bucket_Frame_Background_" data-name="bucket [Frame Background]" width="28" height="28" fill="none"/>
  <g id="design" transform="translate(2.071 1.502)">
    <path id="bucket-2" data-name="bucket" d="M1.38,15.657a4.611,4.611,0,0,1,0-6.578L8.108,2.465l.216-.179-.661-.667A.87.87,0,0,1,7.24.979.866.866,0,0,1,7.49.255.88.88,0,0,1,8.865.427L10.727,2.3l.228.167,7.737,7.7a2.027,2.027,0,0,1,0,2.884l-6.668,6.614a4.725,4.725,0,0,1-6.632,0Zm1.274-5.267a2.74,2.74,0,0,0-.637.93l14.6-.7L9.682,3.74a.241.241,0,0,0-.36,0ZM17.6,24a.866.866,0,0,1-.257.615.881.881,0,0,1-.62.255H1.9a.881.881,0,0,1-.62-.255.865.865,0,0,1,0-1.23.881.881,0,0,1,.62-.255H16.734a.881.881,0,0,1,.608.255.866.866,0,0,1,.257.6ZM21.936,15.2a7.774,7.774,0,0,1,1.922,4.457,3.608,3.608,0,0,1-1.07,2.562,3.673,3.673,0,0,1-5.165,0,3.608,3.608,0,0,1-1.07-2.562,8.1,8.1,0,0,1,1.934-4.445,2.184,2.184,0,0,1,3.448,0Zm-1.73,6.173a1.787,1.787,0,0,0,1.287-.474,1.757,1.757,0,0,0,.563-1.242,6.055,6.055,0,0,0-1.538-3.4.386.386,0,0,0-.3-.143.361.361,0,0,0-.3.155,6.162,6.162,0,0,0-1.562,3.384,1.757,1.757,0,0,0,.559,1.25,1.786,1.786,0,0,0,1.291.478Z" transform="translate(0 0)" fill="#7e8299"/>
  </g>
</svg>
