<svg xmlns="http://www.w3.org/2000/svg" width="25.395" height="28" viewBox="0 0 25.395 28">
  <path id="calculatoror" d="M19.118,28H6.277A6.277,6.277,0,0,1,0,21.723V6.277A6.277,6.277,0,0,1,6.277,0H19.118A6.277,6.277,0,0,1,25.4,6.277V21.723A6.277,6.277,0,0,1,19.118,28ZM6.277,1.953A4.324,4.324,0,0,0,1.953,6.277V21.723a4.324,4.324,0,0,0,4.324,4.324H19.118a4.324,4.324,0,0,0,4.324-4.324V6.277a4.324,4.324,0,0,0-4.324-4.324ZM18.246,13.674H7.15a3.256,3.256,0,0,1-3.243-3.243V7.15A3.256,3.256,0,0,1,7.15,3.907h11.1A3.256,3.256,0,0,1,21.488,7.15v3.282a3.256,3.256,0,0,1-3.243,3.243ZM7.15,5.86a1.3,1.3,0,0,0-1.3,1.3v3.269a1.3,1.3,0,0,0,1.3,1.3h11.1a1.3,1.3,0,0,0,1.3-1.3V7.15a1.3,1.3,0,0,0-1.3-1.3ZM19.479,17.416a1.3,1.3,0,1,1-.921-.381,1.3,1.3,0,0,1,.921.381ZM15.94,19.834a1.281,1.281,0,1,0,.013,0Zm-4.727.56a.977.977,0,0,1,0,1.38.925.925,0,0,1-.7.313.951.951,0,0,1-.664-.273l-.807-.768-.807.768a.951.951,0,0,1-.651.313A.977.977,0,0,1,6.9,20.433l.729-.69-.729-.7a.976.976,0,0,1,1.38-1.38l.807.755L9.9,17.66a.951.951,0,0,1,1.3,0,.977.977,0,0,1,0,1.38l-.729.7Z" transform="translate(0 0)" fill="#7e8299"/>
</svg>
