<svg id="element-equal" xmlns="http://www.w3.org/2000/svg" width="28" height="28" viewBox="0 0 28 28">
  <rect id="element-equal_Frame_Background_" data-name="element-equal [Frame Background]" width="28" height="28" fill="none"/>
  <g id="grid" transform="translate(1 1.25)">
    <path id="element-equal-2" data-name="element-equal" d="M8.858,11.86H2.929A2.989,2.989,0,0,1,0,8.872V2.941A2.989,2.989,0,0,1,2.988,0H8.918a2.989,2.989,0,0,1,2.941,2.989v5.93a2.989,2.989,0,0,1-3,2.941ZM2.929,1.779A1.186,1.186,0,0,0,1.743,2.965V8.9a1.186,1.186,0,0,0,1.186,1.186H8.858A1.186,1.186,0,0,0,10.044,8.9V2.965A1.186,1.186,0,0,0,8.858,1.779Zm19.6,10.081H16.6a2.989,2.989,0,0,1-2.965-2.989V2.941A2.989,2.989,0,0,1,16.6,0h5.929A2.989,2.989,0,0,1,25.52,2.989v5.93a2.989,2.989,0,0,1-2.988,2.941ZM16.6,1.779a1.186,1.186,0,0,0-1.186,1.186V8.9A1.186,1.186,0,0,0,16.6,10.081h5.929A1.186,1.186,0,0,0,23.717,8.9V2.965a1.186,1.186,0,0,0-1.186-1.186ZM8.835,25.5H2.905A2.989,2.989,0,0,1,0,22.511v-5.93a2.989,2.989,0,0,1,2.988-2.989H8.918a2.989,2.989,0,0,1,2.941,3.036v5.93a2.989,2.989,0,0,1-3,2.941ZM2.905,15.419A1.186,1.186,0,0,0,1.72,16.6v5.93a1.186,1.186,0,0,0,1.186,1.186H8.835a1.186,1.186,0,0,0,1.186-1.186V16.6a1.186,1.186,0,0,0-1.186-1.186ZM24.6,21.847a.889.889,0,0,1-.878.89h-8.3a.89.89,0,0,1,0-1.779h8.289a.9.9,0,0,1,.889.89Zm0-4.554a.9.9,0,0,1-.878.89h-8.3a.89.89,0,0,1,0-1.779h8.289a.889.889,0,0,1,.889.89Z" transform="translate(0 0)" fill="#7e8299"/>
  </g>
</svg>
