<svg id="cancel_jqzw1cnadna3" xmlns="http://www.w3.org/2000/svg" width="35.374" height="35.374" viewBox="0 0 35.374 35.374">
  <g id="Group_9114" data-name="Group 9114">
    <g id="Group_9113" data-name="Group 9113">
      <path id="Path_20214" data-name="Path 20214" d="M17.687,0A17.687,17.687,0,1,0,35.374,17.687,17.677,17.677,0,0,0,17.687,0Zm0,33.015A15.329,15.329,0,1,1,33.015,17.687,15.346,15.346,0,0,1,17.687,33.015Z" fill="#f1416c"/>
    </g>
  </g>
  <g id="Group_9116" data-name="Group 9116" transform="translate(10.148 10.148)">
    <g id="Group_9115" data-name="Group 9115">
      <path id="Path_20215" data-name="Path 20215" d="M156.086,154.417l5.526-5.526a1.179,1.179,0,0,0-1.668-1.668l-5.526,5.526-5.526-5.526a1.179,1.179,0,0,0-1.668,1.668l5.526,5.526-5.526,5.526a1.179,1.179,0,0,0,1.668,1.668l5.526-5.526,5.526,5.526a1.179,1.179,0,0,0,1.668-1.668Z" transform="translate(-146.879 -146.878)" fill="#f1416c"/>
    </g>
  </g>
</svg>
