<svg id="confirm-purchase-svgrepo-com" xmlns="http://www.w3.org/2000/svg" width="39.413" height="37.425" viewBox="0 0 39.413 37.425">
  <g id="Icons_39_" transform="translate(0 0)">
    <g id="Group_9" data-name="Group 9">
      <path id="Path_364" data-name="Path 364" d="M49.85,35.238l-.031-.5c-.251.022-.5.044-.75.044a7.553,7.553,0,0,1-4.495-1.435l-7.373-5.5c-2.8-2.088-2.483-6.176,0-8.531s6.191-2.086,8.987,0l1.392,1.039,1.21-1.623-.457-7.113a2.323,2.323,0,0,0-2.462-1.962H43.542V6.529c0-3.6-3.481-6.529-7.758-6.529s-7.755,2.928-7.755,6.528V9.657h-2.34a2.322,2.322,0,0,0-2.461,1.962L21.712,35.238a1.9,1.9,0,0,0,.673,1.539,2.7,2.7,0,0,0,1.789.648H47.388a2.709,2.709,0,0,0,1.79-.648A1.9,1.9,0,0,0,49.85,35.238ZM32.545,6.528A3.02,3.02,0,0,1,35.784,3.8a3.024,3.024,0,0,1,3.243,2.729V9.657H32.545Z" transform="translate(-21.708)" fill="#7e8299"/>
      <path id="Path_365" data-name="Path 365" d="M232.038,172.522a2.81,2.81,0,0,0-3.87.885l-7.617,12.142-5.064-3.33a2.807,2.807,0,0,0-3.723,4.2l7.542,5.526a2.808,2.808,0,0,0,1.862.707,2.757,2.757,0,0,0,.4-.029,2.8,2.8,0,0,0,1.979-1.287l9.379-14.947A2.8,2.8,0,0,0,232.038,172.522Z" transform="translate(-193.94 -160.908)" fill="#7e8299"/>
    </g>
  </g>
</svg>
