<svg xmlns="http://www.w3.org/2000/svg" width="30.283" height="30.283" viewBox="0 0 30.283 30.283">
  <g id="accounting_5yesipvyz2b7" transform="translate(0)">
    <path id="Path_20195" data-name="Path 20195" d="M25.887,12.7a4.4,4.4,0,0,0-4.367,3.908H14.653V14.653h4.884a.978.978,0,0,0,.977-.977V12.671a4.4,4.4,0,0,0,3.651-2.9h2.817a2.326,2.326,0,0,0,2.324-2.324,2.56,2.56,0,0,0-2.118-2.516l-.28-.561A6.1,6.1,0,0,0,21.42.977,6.174,6.174,0,0,0,17.738,2.2l-.025.019a5.209,5.209,0,0,0-8.27-.348l-.88,1.056H1.954A1.956,1.956,0,0,0,0,4.884v12.7a1.956,1.956,0,0,0,1.954,1.954H3.908v2.635a3.766,3.766,0,0,0,1.441,2.96l-.515,5.15h6.941l-.515-5.151a3.765,3.765,0,0,0,1.441-2.96V20.514h7.815V21.52a4.4,4.4,0,1,0,.977,0V20.514a.978.978,0,0,0-.977-.977H12.7a1.956,1.956,0,0,0,1.954-1.954H21.52A4.4,4.4,0,1,0,25.887,12.7Zm-8.3,13.188a3.421,3.421,0,0,1,2.931-3.38v.938h-.977V24.91A1.467,1.467,0,0,0,21,26.376a.489.489,0,0,1,.488.488v.488H21a.489.489,0,0,1-.488-.488v-.488h-.977v.488a1.463,1.463,0,0,0,.977,1.375v1.028A3.421,3.421,0,0,1,17.584,25.887Zm6.838,0a3.421,3.421,0,0,1-2.931,3.38v-.938h.977V26.864A1.467,1.467,0,0,0,21,25.4a.489.489,0,0,1-.488-.488v-.488H21a.489.489,0,0,1,.488.488V25.4h.977V24.91a1.463,1.463,0,0,0-.977-1.375V22.507A3.421,3.421,0,0,1,24.422,25.887ZM14.653,13.676V9.769h1.233a4.4,4.4,0,0,0,3.651,2.9v1.006Zm4.884-7.815h-.977V7.327a1.467,1.467,0,0,0,1.465,1.465.489.489,0,0,1,.488.488v.488h-.488a.489.489,0,0,1-.488-.488V8.792h-.977V9.28a1.463,1.463,0,0,0,.977,1.375v1.028a3.414,3.414,0,0,1,0-6.76Zm.977,5.822v-.938h.977V9.28a1.467,1.467,0,0,0-1.465-1.465.489.489,0,0,1-.488-.488V6.838h.488a.489.489,0,0,1,.488.488v.488h.977V7.327a1.463,1.463,0,0,0-.977-1.375V4.923a3.414,3.414,0,0,1,0,6.76ZM5.913,29.306,6.3,25.4h4l.391,3.908Zm5.81-7.134a2.792,2.792,0,0,1-1.14,2.249H6.024a2.793,2.793,0,0,1-1.14-2.249V18.561a.978.978,0,0,1,.977.977v.977h.977V15.142a.488.488,0,0,1,.977,0v5.373h.977V18.072a.488.488,0,0,1,.977,0v2.442h.977V19.049a.488.488,0,0,1,.977,0Zm1.954-4.589a.978.978,0,0,1-.977.977h-.09a1.452,1.452,0,0,0-1.921-.869,1.441,1.441,0,0,0-1.9-.994V15.142a1.465,1.465,0,0,0-2.931,0v2.714a1.934,1.934,0,0,0-.977-.272.978.978,0,0,0-.977.977H1.954a.978.978,0,0,1-.977-.977V4.884a.978.978,0,0,1,.977-.977H12.7a.978.978,0,0,1,.977.977ZM12.7,2.931H9.835l.359-.431a4.233,4.233,0,0,1,6.881.532l.368.615.881-.661a5.193,5.193,0,0,1,3.1-1.032,5.13,5.13,0,0,1,4.614,2.852l.083.166a2.543,2.543,0,0,0-1.183.663l-.37.37.691.691.37-.37a1.584,1.584,0,0,1,2.7,1.12,1.348,1.348,0,0,1-1.347,1.347h-2.59a4.4,4.4,0,1,0-8.734,0H14.653V4.884A1.956,1.956,0,0,0,12.7,2.931ZM22.468,17.1a3.421,3.421,0,0,1,2.931-3.38v.938h-.977v1.465a1.467,1.467,0,0,0,1.465,1.465.489.489,0,0,1,.488.488v.488h-.488a.489.489,0,0,1-.488-.488v-.488h-.977v.488a1.463,1.463,0,0,0,.977,1.375v1.028A3.421,3.421,0,0,1,22.468,17.1Zm3.908,3.38v-.938h.977V18.072a1.467,1.467,0,0,0-1.465-1.465.489.489,0,0,1-.488-.488V15.63h.488a.489.489,0,0,1,.488.488v.488h.977v-.488a1.463,1.463,0,0,0-.977-1.375V13.715a3.414,3.414,0,0,1,0,6.76Z" transform="translate(0)" fill="#66a0b2"/>
    <path id="Path_20196" data-name="Path 20196" d="M13.769,10H4.977A.978.978,0,0,0,4,10.977v1.954a.978.978,0,0,0,.977.977h8.792a.978.978,0,0,0,.977-.977V10.977A.978.978,0,0,0,13.769,10ZM4.977,12.931V10.977h8.792v1.954Z" transform="translate(-2.046 -5.116)" fill="#66a0b2"/>
    <path id="Path_20197" data-name="Path 20197" d="M5.954,20H4.977A.978.978,0,0,0,4,20.977v.977a.978.978,0,0,0,.977.977h.977a.978.978,0,0,0,.977-.977v-.977A.978.978,0,0,0,5.954,20Zm-.977,1.954v-.977h.977v.977Z" transform="translate(-2.046 -10.231)" fill="#66a0b2"/>
    <path id="Path_20198" data-name="Path 20198" d="M13.954,20h-.977a.978.978,0,0,0-.977.977v.977a.978.978,0,0,0,.977.977h.977a.978.978,0,0,0,.977-.977v-.977A.978.978,0,0,0,13.954,20Zm-.977,1.954v-.977h.977v.977Z" transform="translate(-6.139 -10.231)" fill="#66a0b2"/>
    <path id="Path_20199" data-name="Path 20199" d="M21.954,20h-.977a.978.978,0,0,0-.977.977v.977a.978.978,0,0,0,.977.977h.977a.978.978,0,0,0,.977-.977v-.977A.978.978,0,0,0,21.954,20Zm-.977,1.954v-.977h.977v.977Z" transform="translate(-10.231 -10.231)" fill="#66a0b2"/>
    <path id="Path_20200" data-name="Path 20200" d="M5.954,28H4.977A.978.978,0,0,0,4,28.977v.977a.978.978,0,0,0,.977.977h.977a.978.978,0,0,0,.977-.977v-.977A.978.978,0,0,0,5.954,28Zm-.977,1.954v-.977h.977v.977Z" transform="translate(-2.046 -14.324)" fill="#66a0b2"/>
    <path id="Path_20201" data-name="Path 20201" d="M21.954,28h-.977a.978.978,0,0,0-.977.977v.977a.978.978,0,0,0,.977.977h.977a.978.978,0,0,0,.977-.977v-.977A.978.978,0,0,0,21.954,28Zm-.977,1.954v-.977h.977v.977Z" transform="translate(-10.231 -14.324)" fill="#66a0b2"/>
  </g>
</svg>
