<svg xmlns="http://www.w3.org/2000/svg" width="26.443" height="26.369" viewBox="0 0 26.443 26.369">
  <path id="graph-up" d="M8.5,1.746a6.838,6.838,0,0,0-6.777,6.9V17.8A6.838,6.838,0,0,0,8.5,24.7h9.446a6.838,6.838,0,0,0,6.777-6.9V8.646a6.838,6.838,0,0,0-6.777-6.9Zm7.921,5.129a.886.886,0,0,1,0-1.759H19.2a.394.394,0,0,1,.172,0,.381.381,0,0,1,.209.16h.086l.111.135a.5.5,0,0,1,.086.135.75.75,0,0,1,.061.148V8.659a.861.861,0,1,1-1.722,0v-.32A15.079,15.079,0,0,1,8.363,13.32h0a.873.873,0,1,1,0-1.746,13.529,13.529,0,0,0,8.917-4.76h-.861M19.1,21.647a.861.861,0,0,1-.861-.873V12.951a.861.861,0,1,1,1.722,0v7.884a.861.861,0,0,1-.861.873m-5.793-.128a.861.861,0,0,1-.529-.807V16.026a.861.861,0,0,1,1.722,0v4.747a.861.861,0,0,1-1.193.807Zm-5.531,0a.861.861,0,0,1-.52-.8V17.489a.861.861,0,1,1,1.71,0v3.284a.851.851,0,0,1-1.189.8ZM17.944.037a8.609,8.609,0,0,1,8.5,8.609V17.76a8.609,8.609,0,0,1-8.5,8.609H8.5A8.609,8.609,0,0,1,0,17.76V8.609A8.609,8.609,0,0,1,8.5,0h9.446Z" transform="translate(0 0)" fill="#e0d65d"/>
</svg>
