<svg xmlns="http://www.w3.org/2000/svg" width="22.996" height="31.678" viewBox="0 0 22.996 31.678">
  <path id="tag" d="M12.53,2.8A11.5,11.5,0,0,1,23,14.225V26.018a5.675,5.675,0,0,1-5.675,5.661H5.675A5.675,5.675,0,0,1,0,26.018V14.225A11.5,11.5,0,0,1,10.319,2.8v-1.7a1.106,1.106,0,0,1,2.211,0V2.8ZM10.378,7.916a1.105,1.105,0,0,0-.147.383,1.12,1.12,0,1,0,2.241,0,1.105,1.105,0,0,0,0-.383,1.091,1.091,0,0,1-2.093,0Zm10.333,6.309A9.287,9.287,0,0,0,12.53,5v.147a3.331,3.331,0,1,1-2.211,0V5a9.287,9.287,0,0,0-8.181,9.2V25.988A3.464,3.464,0,0,0,5.6,29.438H17.321A3.464,3.464,0,0,0,20.7,25.988ZM15.36,22.657a3.066,3.066,0,0,1-2.27,3.081V26.7a.649.649,0,0,1-.649.649h-.884a.649.649,0,0,1-.649-.649v-.929a5.189,5.189,0,0,1-2.3-1.179.634.634,0,0,1-.088-.84l.56-.84a.663.663,0,0,1,.442-.265.722.722,0,0,1,.516.147A2.8,2.8,0,0,0,11.9,23.6c.884,0,.988-.457.988-.855,0-.722-.56-1.032-1.563-1.474a3.587,3.587,0,0,1-2.55-3.2,2.948,2.948,0,0,1,2.137-2.948V14.078a.649.649,0,0,1,.649-.649h.884a.649.649,0,0,1,.649.649v.943a4.039,4.039,0,0,1,1.9,1.179.634.634,0,0,1,0,.87l-.649.722a.678.678,0,0,1-.442.221.722.722,0,0,1-.486-.192,1.739,1.739,0,0,0-1.341-.649.737.737,0,0,0-.84.767c0,.516.427.781,1.4,1.253a3.759,3.759,0,0,1,2.742,3.464Z" transform="translate(0 0)" fill="#68b266"/>
</svg>
