<svg xmlns="http://www.w3.org/2000/svg" width="30.558" height="28" viewBox="0 0 30.558 28">
  <path id="Vector" d="M21.05,0a9.523,9.523,0,0,1,9.509,9.509v8.983A9.523,9.523,0,0,1,21.05,28H9.509A9.523,9.523,0,0,1,0,18.491V9.509A9.523,9.523,0,0,1,9.509,0H21.05Zm7.519,9.509A7.519,7.519,0,0,0,21.05,1.99H9.509A7.519,7.519,0,0,0,1.99,9.509v8.969A7.519,7.519,0,0,0,9.509,26H21.05a7.519,7.519,0,0,0,7.519-7.519ZM12.636,14.2a4.534,4.534,0,0,1,3.681,4.065.995.995,0,0,1-1.99,0c0-1.109-1.691-2.345-4.108-2.345s-4.093,1.237-4.093,2.345a.995.995,0,0,1-1.99,0,4.52,4.52,0,0,1,3.681-4.051,4.435,4.435,0,1,1,4.818,0ZM8.5,8.775a2.445,2.445,0,1,0,1.714-.716A2.445,2.445,0,0,0,8.5,8.775Zm16.439,8.068a.995.995,0,0,1-.995.995H19.316a.995.995,0,1,1,0-1.99h4.634a.995.995,0,0,1,.995.995Zm.512-5.088a.995.995,0,0,1-.995.995H17.354a.995.995,0,1,1,0-1.99h7.107a1.009,1.009,0,0,1,.995.995Z" transform="translate(0)" fill="#7e8299"/>
</svg>
