<svg id="calendar" xmlns="http://www.w3.org/2000/svg" width="15.333" height="16.667" viewBox="0 0 15.333 16.667">
  <path id="Vector" d="M0,.683A.683.683,0,0,1,.683,0H14.65a.683.683,0,0,1,.683.683V5.425a4.517,4.517,0,0,1-4.517,4.517h-6.3A4.517,4.517,0,0,1,0,5.425V.683Z" transform="translate(0 6.725)" fill="#4c4f64"/>
  <path id="Vector-2" data-name="Vector" d="M14.814,4.65a.692.692,0,0,1-.642.933H.839A.833.833,0,0,1,.056,4.45a4.542,4.542,0,0,1,2.8-2.575V.575A.567.567,0,0,1,3.423,0,.575.575,0,0,1,4,.575V1.667H6.989V.575a.575.575,0,1,1,1.15,0V1.667h2.683V.575A.567.567,0,0,1,11.389,0a.575.575,0,0,1,.575.575v1.3a4.55,4.55,0,0,1,2.85,2.775ZM4.714,9.167a.717.717,0,0,1,.717.708.708.708,0,1,1-.717-.708Zm2.675,0a.717.717,0,0,1,.717.708.708.708,0,1,1-.717-.708Zm2.7,0a.708.708,0,1,1-.271.054.708.708,0,0,1,.271-.054ZM4.98,11.885a.708.708,0,1,1-.274-.052.708.708,0,0,1,.274.052Zm2.675,0a.708.708,0,1,1-.274-.052.708.708,0,0,1,.274.052Zm2.418-.052a.717.717,0,0,1,.725.708.708.708,0,1,1-.725-.708Z" transform="translate(0.227 0)" fill="#a1a5b7"/>
</svg>
