<svg id="Item" xmlns="http://www.w3.org/2000/svg" width="28" height="28" viewBox="0 0 28 28">
  <g id="notification-on" transform="translate(0)">
    <rect id="notification-on_Frame_Background_" data-name="notification-on [Frame Background]" width="28" height="28" fill="none"/>
    <g id="notification" transform="translate(2.359 1.494)">
      <path id="Vector" d="M21.625,16.385a3.4,3.4,0,0,1,.162,3.571A3.584,3.584,0,0,1,20.464,21.3a3.78,3.78,0,0,1-1.853.517H14.454v.4a3.22,3.22,0,0,1-1.13,2.011,3.5,3.5,0,0,1-4.458,0,3.22,3.22,0,0,1-1.13-2.011v-.4H3.6a3.682,3.682,0,0,1-2.549-1.013,3.352,3.352,0,0,1-.352-4.5L1.545,15.2a8.5,8.5,0,0,0,1.8-5.3A7.222,7.222,0,0,1,4.6,5.667,7.685,7.685,0,0,1,8.125,2.857a8.271,8.271,0,0,1,2.034-.494V.9a.873.873,0,0,1,.072-.346.9.9,0,0,1,.2-.293.945.945,0,0,1,.306-.2.978.978,0,0,1,.721,0,.945.945,0,0,1,.306.2.9.9,0,0,1,.2.293A.873.873,0,0,1,12.043.9V2.315a8.084,8.084,0,0,1,5.116,2.469A7.476,7.476,0,0,1,19.227,9.91v.181a8.582,8.582,0,0,0,1.532,5.064Zm-9.042,5.437H9.62v.193a1.434,1.434,0,0,0,.512.863,1.545,1.545,0,0,0,.97.343,1.52,1.52,0,0,0,.975-.337,1.409,1.409,0,0,0,.506-.868Zm6.028-1.808a1.782,1.782,0,0,0,.673-.131,1.724,1.724,0,0,0,.566-.374,1.645,1.645,0,0,0,.369-.556,1.592,1.592,0,0,0,.112-.651,1.65,1.65,0,0,0-.289-.977L19.2,16.119a10.282,10.282,0,0,1-1.846-6.028V9.9a5.684,5.684,0,0,0-1.765-4.1,6.17,6.17,0,0,0-4.263-1.7,6.9,6.9,0,0,0-2.512.458,5.791,5.791,0,0,0-2.636,2.1,5.444,5.444,0,0,0-.956,3.157,10.319,10.319,0,0,1-2.1,6.462l-.841,1.109a1.557,1.557,0,0,0-.4.977,1.619,1.619,0,0,0,.5,1.168,1.757,1.757,0,0,0,1.217.484H18.611Z" transform="translate(0.555 0)" fill="#7e8299"/>
      <path id="Vector-2" data-name="Vector" d="M.748,6.463a.678.678,0,0,1-.678-.587A6.114,6.114,0,0,1,2.388.11a.678.678,0,0,1,.917.165.687.687,0,0,1-.165.917A4.73,4.73,0,0,0,1.426,5.665a.688.688,0,0,1-.587.779Z" transform="translate(0 1.796)" fill="#7e8299"/>
      <path id="Vector-3" data-name="Vector" d="M1.137.168A6.114,6.114,0,0,1,3.071,2.752,6.114,6.114,0,0,1,3.42,5.961a.678.678,0,0,1-.678.587H2.65a.688.688,0,0,1-.587-.779A4.776,4.776,0,0,0,1.81,3.3,4.776,4.776,0,0,0,.349,1.286.688.688,0,1,1,1.137.168Z" transform="translate(19.791 1.693)" fill="#7e8299"/>
    </g>
  </g>
</svg>
