<svg xmlns="http://www.w3.org/2000/svg" width="27.818" height="28" viewBox="0 0 27.818 28">
  <path id="messages" d="M20.85,19.824V11.244a4.108,4.108,0,0,0-4.095-4.095H5.057v-1.1A6.045,6.045,0,0,1,11.062,0H21.773a6.045,6.045,0,0,1,6.045,6.045v7.8a6.045,6.045,0,0,1-5.98,6.032ZM16.756,5.2A6.045,6.045,0,0,1,22.8,11.244v6.5a4.095,4.095,0,0,0,3.068-3.9v-7.8A4.108,4.108,0,0,0,21.773,1.95H11.062a4.082,4.082,0,0,0-4,3.263ZM11.4,28a2.6,2.6,0,0,1-2.158-1.131l-1.17-1.651a.429.429,0,0,0-.377-.195H6.11A6.045,6.045,0,0,1,0,18.979V11.244A6.045,6.045,0,0,1,6.11,5.2H16.821a6.045,6.045,0,0,1,6.045,6.045v7.734a6.045,6.045,0,0,1-6.045,6.045H15.1a.442.442,0,0,0-.377.195l-1.17,1.651A2.6,2.6,0,0,1,11.4,28ZM6.11,7.149a4.108,4.108,0,0,0-4.16,4.095v7.734A4.095,4.095,0,0,0,6.11,23.1H7.7a2.392,2.392,0,0,1,1.976,1.027L10.828,25.7a.7.7,0,0,0,.572.3h0a.7.7,0,0,0,.572-.3l1.157-1.651A2.392,2.392,0,0,1,15.1,23.1h1.651A4.095,4.095,0,0,0,20.85,19v-7.76a4.108,4.108,0,0,0-4.095-4.095Zm1.614,7.212a1.235,1.235,0,0,1,.362.86A1.222,1.222,0,1,1,6.863,14a1.235,1.235,0,0,1,.86.362ZM11.413,14a1.235,1.235,0,0,1,1.2,1.3,1.222,1.222,0,1,1-1.2-1.3Zm4.537,0a1.235,1.235,0,0,1,1.222,1.222A1.222,1.222,0,1,1,15.95,14Z" transform="translate(0 0)" fill="#7e8299"/>
</svg>
