<svg xmlns="http://www.w3.org/2000/svg" width="26" height="26" viewBox="0 0 26 26">
  <path id="lots-shopping" d="M8.634,14.862a2.491,2.491,0,0,1,2.5,2.5V23.5a2.5,2.5,0,0,1-2.5,2.5H2.5A2.5,2.5,0,0,1,0,23.5V17.366a2.5,2.5,0,0,1,2.5-2.5H8.634Zm.6,2.455a.677.677,0,0,0-.689-.689H7.34v.653A1.209,1.209,0,0,1,6.131,18.49H4.922a1.209,1.209,0,0,1-1.209-1.209v-.653H2.5a.689.689,0,0,0-.689.738V23.5a.7.7,0,0,0,.689.689h6.18a.689.689,0,0,0,.689-.689ZM23.5,14.862a2.5,2.5,0,0,1,2.5,2.5V23.5A2.5,2.5,0,0,1,23.5,26H17.366a2.5,2.5,0,0,1-2.5-2.5V17.366a2.491,2.491,0,0,1,2.5-2.5h6.18Zm.6,2.455a.689.689,0,0,0-.689-.689H22.2v.7a1.209,1.209,0,0,1-1.209,1.209H19.784a1.209,1.209,0,0,1-1.209-1.209v-.653H17.366a.677.677,0,0,0-.689.689V23.5a.689.689,0,0,0,.689.689h6.18a.7.7,0,0,0,.689-.689ZM8.634,0a2.5,2.5,0,0,1,2.5,2.5V8.622a2.491,2.491,0,0,1-2.5,2.5H2.5A2.5,2.5,0,0,1,0,8.622V2.576A2.576,2.576,0,0,1,2.588,0H8.634Zm.738,2.5a.689.689,0,0,0-.822-.689H7.34v.665A1.209,1.209,0,0,1,6.131,3.688H4.922A1.209,1.209,0,0,1,3.713,2.479v-.6H2.576a.762.762,0,0,0-.762.762V8.683a.689.689,0,0,0,.689.689H8.634a.677.677,0,0,0,.738-.738ZM25.267.733A2.5,2.5,0,0,1,26,2.5V8.634a2.5,2.5,0,0,1-2.5,2.5H17.366a2.491,2.491,0,0,1-2.5-2.5V2.5a2.5,2.5,0,0,1,2.5-2.5H23.5a2.5,2.5,0,0,1,1.77.733ZM24.053,2.5a.7.7,0,0,0-.689-.689H22.154v.665a1.209,1.209,0,0,1-1.209,1.209H19.736a1.209,1.209,0,0,1-1.209-1.209V1.814H17.317a.689.689,0,0,0-.689.689V8.634a.677.677,0,0,0,.738.689H23.5a.689.689,0,0,0,.689-.689Z" transform="translate(0 0)" fill="#7e8299"/>
</svg>
