<svg id="bill" xmlns="http://www.w3.org/2000/svg" width="17.5" height="11.744" viewBox="0 0 17.5 11.744">
  <path id="Vector" d="M14.367,11.744H3.133A3.209,3.209,0,0,1,.92,10.861,2.956,2.956,0,0,1,0,8.736V3.008A2.956,2.956,0,0,1,.92.883,3.209,3.209,0,0,1,3.133,0H14.367A3.209,3.209,0,0,1,16.58.883a2.956,2.956,0,0,1,.92,2.125V8.736a2.956,2.956,0,0,1-.92,2.125,3.209,3.209,0,0,1-2.213.883ZM3.133,1.2A1.924,1.924,0,0,0,1.8,1.73,1.772,1.772,0,0,0,1.25,3.008V8.736A1.772,1.772,0,0,0,1.8,10.014a1.924,1.924,0,0,0,1.332.53H14.367a1.924,1.924,0,0,0,1.332-.53,1.772,1.772,0,0,0,.552-1.278V3.008A1.772,1.772,0,0,0,15.7,1.73a1.924,1.924,0,0,0-1.332-.53Z" transform="translate(0 0)" fill="#7e8299"/>
  <path id="Vector-2" data-name="Vector" d="M.675,0a.69.69,0,0,1,.477.19.628.628,0,0,1,.084.818.67.67,0,0,1-.3.239.7.7,0,0,1-.39.037A.684.684,0,0,1,.2,1.106.64.64,0,0,1,.013.774.624.624,0,0,1,.051.4.654.654,0,0,1,.3.109.7.7,0,0,1,.675,0Z" transform="translate(2.808 5.224)" fill="#7e8299"/>
  <path id="Vector-3" data-name="Vector" d="M1.15.192a.643.643,0,0,1,.2.456.63.63,0,0,1-.114.36.67.67,0,0,1-.3.239.7.7,0,0,1-.39.037A.684.684,0,0,1,.2,1.106.64.64,0,0,1,.013.774.624.624,0,0,1,.051.4.654.654,0,0,1,.3.109a.69.69,0,0,1,.85.083Z" transform="translate(13.2 5.224)" fill="#7e8299"/>
  <path id="Vector-4" data-name="Vector" d="M3.012,6.4A3.246,3.246,0,0,1,.822,5.394,2.991,2.991,0,0,1,0,3.2,2.991,2.991,0,0,1,.822,1.006,3.246,3.246,0,0,1,3.012,0,3.246,3.246,0,0,1,5.207,1a2.992,2.992,0,0,1,.822,2.2A3,3,0,0,1,5.2,5.394,3.254,3.254,0,0,1,3.012,6.4Zm0-5.224A1.976,1.976,0,0,0,1.7,1.835a1.823,1.823,0,0,0-.452,1.349A1.823,1.823,0,0,0,1.7,4.538a1.976,1.976,0,0,0,1.31.662,1.985,1.985,0,0,0,1.313-.661,1.831,1.831,0,0,0,.454-1.355,1.823,1.823,0,0,0-.455-1.352,1.977,1.977,0,0,0-1.312-.656Z" transform="translate(5.738 2.6)" fill="#7e8299"/>
</svg>
