<svg xmlns="http://www.w3.org/2000/svg" width="28" height="28" viewBox="0 0 28 28">
  <g id="profit_r3flosld0n71" transform="translate(-2 -2)">
    <path id="Path_20215" data-name="Path 20215" d="M30,18.5c0,1.933-2.91,3.5-6.5,3.5S17,20.433,17,18.5,19.91,15,23.5,15,30,16.567,30,18.5Z" fill="#ff9e3e"/>
    <path id="Path_20216" data-name="Path 20216" d="M30,21.48V22.5c0,1.933-2.91,3.5-6.5,3.5S17,24.433,17,22.5V21.48a10.018,10.018,0,0,0,6.5,2.02A10.024,10.024,0,0,0,30,21.48Z" fill="#ff9e3e"/>
    <path id="Path_20217" data-name="Path 20217" d="M30,25.48V26.5c0,1.933-2.91,3.5-6.5,3.5S17,28.433,17,26.5V25.48a10.018,10.018,0,0,0,6.5,2.02A10.024,10.024,0,0,0,30,25.48Z" fill="#ff9e3e"/>
    <path id="Path_20218" data-name="Path 20218" d="M15,22.5c0,1.933-2.91,3.5-6.5,3.5S2,24.433,2,22.5,4.91,19,8.5,19,15,20.567,15,22.5Z" fill="#ff9e3e"/>
    <path id="Path_20219" data-name="Path 20219" d="M15,25.48V26.5c0,1.933-2.91,3.5-6.5,3.5S2,28.433,2,26.5V25.48A10.018,10.018,0,0,0,8.5,27.5,10.024,10.024,0,0,0,15,25.48Z" fill="#ff9e3e"/>
    <path id="Path_20220" data-name="Path 20220" d="M28,2V7.507a.2.2,0,0,1-.348.144L25.707,5.706l-7,7a1,1,0,0,1-1.414,0L12,7.414,6.061,13.353a.5.5,0,0,1-.707,0l-.707-.707a.5.5,0,0,1,0-.707l6.646-6.646a1,1,0,0,1,1.414,0L18,10.586l6.293-6.293L22.348,2.348A.2.2,0,0,1,22.493,2Z" fill="#ff9e3e"/>
  </g>
</svg>
