<svg xmlns="http://www.w3.org/2000/svg" width="31.132" height="31.132" viewBox="0 0 31.132 31.132">
  <g id="sales_gzmhfem2qga4" transform="translate(-96 -96)">
    <path id="Path_20214" data-name="Path 20214" d="M107.119,111.566v13.342a2.223,2.223,0,0,0,2.224,2.224h4.447a2.223,2.223,0,0,0,2.224-2.224V111.566a2.223,2.223,0,0,0-2.224-2.224h-4.447A2.223,2.223,0,0,0,107.119,111.566Zm20.013-8.895a2.225,2.225,0,0,0-2.224-2.224h-4.447a2.224,2.224,0,0,0-2.224,2.224v22.237a2.225,2.225,0,0,0,2.224,2.224h4.447a2.225,2.225,0,0,0,2.224-2.224ZM96,107.119v17.79a2.225,2.225,0,0,0,2.224,2.224h4.447a2.225,2.225,0,0,0,2.224-2.224v-17.79a2.225,2.225,0,0,0-2.224-2.224H98.224A2.225,2.225,0,0,0,96,107.119ZM110.454,97.1a2.936,2.936,0,0,0-1.684,1.07,2.824,2.824,0,0,0-.539,1.732c0,1.433.991,2.16,2.366,2.562.5.145,1.047.251,1.525.411a2.274,2.274,0,0,1,.408.173c.074.043.148.089.148.189,0,.443-.336.613-.7.663a3.109,3.109,0,0,1-2.009-.473,1.112,1.112,0,1,0-1.243,1.843,5.2,5.2,0,0,0,1.733.72v.018a1.112,1.112,0,0,0,2.224.017,3.324,3.324,0,0,0,.344-.1,2.651,2.651,0,0,0,1.88-2.688c0-1.433-.991-2.16-2.366-2.562-.5-.146-1.047-.252-1.525-.412a2.273,2.273,0,0,1-.408-.172c-.074-.043-.148-.09-.148-.189,0-.448.337-.625.709-.677a2.984,2.984,0,0,1,1.989.477,1.112,1.112,0,0,0,1.274-1.823,5.124,5.124,0,0,0-1.749-.753v-.011a1.112,1.112,0,0,0-2.224-.014Z" fill="#7e8299" fill-rule="evenodd"/>
  </g>
</svg>
