<svg xmlns="http://www.w3.org/2000/svg" width="28" height="28" viewBox="0 0 28 28">
  <g id="reduction_2cy77tyscxoh" transform="translate(-2 -2)">
    <path id="Path_20216" data-name="Path 20216" d="M27,18H16V13a1,1,0,0,0-2,0v5H4V10H6v4a1,1,0,0,0,1.448.895L9,14.118l1.553.776A1,1,0,0,0,12,14V11a1,1,0,0,0-2,0v1.382l-.553-.276a1,1,0,0,0-.9,0L8,12.382V10A1,1,0,0,0,8,8H3A1,1,0,0,0,2,9V29a1,1,0,0,0,1,1H27a1,1,0,0,0,1-1V19a1,1,0,0,0-1-1Zm-7,2h2v2.382l-.553-.276a1,1,0,0,0-.9,0L20,22.382ZM8,20h2v2.382l-.553-.276a1,1,0,0,0-.9,0L8,22.382ZM4,20H6v4a1,1,0,0,0,1.448.9L9,24.118l1.553.776A1,1,0,0,0,12,24V20h2v8H4Zm22,8H16V20h2v4a1,1,0,0,0,1.448.9L21,24.118l1.553.776A1,1,0,0,0,24,24V20h2Z" fill="#ff9e3e"/>
    <path id="Path_20217" data-name="Path 20217" d="M30,8v5a1,1,0,0,1-1,1H24a1,1,0,0,1,0-2h2.586L20,5.414l-5.293,5.293a1,1,0,0,1-1.414,0l-7-7A1,1,0,0,1,7.707,2.293L14,8.586l5.293-5.293a1,1,0,0,1,1.414,0L28,10.586V8a1,1,0,0,1,2,0Z" fill="#ff9e3e"/>
  </g>
</svg>
