<svg id="information-1" xmlns="http://www.w3.org/2000/svg" width="27" height="27" viewBox="0 0 27 27">
  <path id="Vector" d="M13.5,27a13.513,13.513,0,1,1,9.542-3.958A13.5,13.5,0,0,1,13.5,27Zm0-25.116A11.629,11.629,0,1,0,21.71,5.29,11.616,11.616,0,0,0,13.5,1.884Z" transform="translate(0 0)" fill="#f1416c"/>
  <path id="Vector-2" data-name="Vector" d="M.365,7.945A1.248,1.248,0,0,1,0,7.063V1.248a1.248,1.248,0,1,1,2.5,0V7.063a1.248,1.248,0,0,1-2.13.882Z" transform="translate(12.252 6.914)" fill="#f1416c"/>
  <path id="Vector-3" data-name="Vector" d="M3.12,1.56A1.56,1.56,0,1,1,1.56,0,1.56,1.56,0,0,1,3.12,1.56Z" transform="translate(11.94 16.98)" fill="#f1416c"/>
</svg>
